<svg width="151" height="42" viewBox="0 0 151 42" fill="none" xmlns="http://www.w3.org/2000/svg">
<g clip-path="url(#clip0_1_218)">
<g clip-path="url(#clip1_1_218)">
<path d="M50.5555 3.29318L43.5869 4.75682L43.5547 27.4114C43.5547 31.5955 46.7413 34.3 50.9739 34.3C53.3236 34.3 55.0457 33.8705 55.9952 33.3614V27.9841C55.0778 28.35 50.5716 29.6546 50.5716 25.4864V15.4318H55.9952V9.41818H50.5716L50.5555 3.29318ZM64.895 11.5023L64.4605 9.41818H58.2805V33.7909H65.41V17.3886C67.0999 15.1932 69.9485 15.6227 70.8658 15.9091V9.41818C69.9002 9.08409 66.5688 8.46364 64.895 11.5023ZM79.7496 0L72.5717 1.51136V7.27045L79.7496 5.75909V0ZM31.2269 16.5932C31.2269 15.4955 32.1603 15.0659 33.6571 15.05C35.8297 15.05 38.5978 15.7023 40.7705 16.8636V10.2136C38.4047 9.29091 36.0389 8.925 33.6732 8.925C27.8794 8.925 24.0169 11.9159 24.0169 16.9114C24.0169 24.7386 34.8802 23.4659 34.8802 26.8386C34.8802 28.1432 33.7375 28.5727 32.1442 28.5727C29.7785 28.5727 26.7206 27.6023 24.3227 26.3136V32.6773C26.9781 33.8068 29.6658 34.2841 32.1281 34.2841C38.0667 34.2841 42.1546 31.7705 42.1546 26.6796C42.1546 18.2636 31.2269 19.775 31.2269 16.5932ZM127.001 21.8909C127.001 14.6523 123.46 8.94091 116.669 8.94091C109.877 8.94091 105.741 14.6523 105.741 21.8432C105.741 30.3545 110.617 34.2841 117.57 34.2841C120.982 34.2841 123.541 33.5205 125.488 32.4545V27.1409C123.541 28.1114 121.304 28.7 118.471 28.7C115.687 28.7 113.241 27.7295 112.919 24.4205H126.904C126.936 24.0545 127.001 22.575 127.001 21.8909ZM112.854 19.2182C112.854 16.0364 114.834 14.7 116.62 14.7C118.375 14.7 120.241 16.0364 120.241 19.2182H112.854ZM94.6846 8.94091C91.8843 8.94091 90.0817 10.2455 89.0839 11.1523L88.7138 9.40227H82.4211V41.9841L89.5667 40.4886L89.5828 32.5023C90.6128 33.25 92.1417 34.2841 94.6363 34.2841C99.7541 34.2841 104.421 30.5932 104.421 21.6205C104.437 13.4114 99.7058 8.94091 94.6846 8.94091ZM92.9786 28.4296C91.3049 28.4296 90.3071 27.825 89.615 27.0932L89.5667 16.5932C90.3071 15.7818 91.3371 15.1932 92.9786 15.1932C95.5858 15.1932 97.3883 18.0886 97.3883 21.7795C97.4044 25.5818 95.6341 28.4296 92.9786 28.4296ZM72.5878 33.7909H79.7657V9.41818H72.5878V33.7909Z" fill="#737373"/>
</g>
</g>
<defs>
<clipPath id="clip0_1_218">
<rect width="151" height="42" fill="white"/>
</clipPath>
<clipPath id="clip1_1_218">
<rect width="103" height="42" fill="white" transform="translate(24)"/>
</clipPath>
</defs>
</svg>
