<svg width="147" height="72" viewBox="0 0 147 72" fill="none" xmlns="http://www.w3.org/2000/svg">
<g clip-path="url(#clip0_1_224)">
<g clip-path="url(#clip1_1_224)">
<path d="M104.926 27.6614C102.531 27.6614 100.424 28.6556 98.8748 30.2111C93.1748 26.2503 85.4949 23.7006 76.9848 23.428L81.4075 3.41556L95.4899 6.59061C95.4899 10.0543 98.3 12.8766 101.749 12.8766C105.261 12.8766 108.087 9.97413 108.087 6.51043C108.087 3.04674 105.277 0.144287 101.749 0.144287C99.2899 0.144287 97.1664 1.6356 96.1126 3.67213L80.5613 0.20843C79.779 -3.36319e-05 79.0126 0.561214 78.805 1.34696L73.9512 23.412C65.505 23.7648 57.905 26.3144 52.1891 30.2752C50.6403 28.6556 48.4529 27.6614 46.058 27.6614C37.1807 27.6614 34.2748 39.624 42.4017 43.7131C42.1143 44.9799 41.9865 46.3269 41.9865 47.6739C41.9865 61.1118 57.0588 72 75.5638 72C94.1487 72 109.221 61.1118 109.221 47.6739C109.221 46.3269 109.077 44.9158 108.726 43.649C116.693 39.5438 113.755 27.6614 104.926 27.6614ZM55.2865 44.563C55.2865 41.0351 58.0966 38.1968 61.6252 38.1968C65.0739 38.1968 67.884 41.0191 67.884 44.563C67.884 48.0267 65.0739 50.849 61.6252 50.849C58.1126 50.865 55.2865 48.0267 55.2865 44.563ZM89.5025 59.5563C83.6907 65.3933 67.2933 65.3933 61.4815 59.5563C60.8428 58.9951 60.8428 58.0008 61.4815 57.3594C62.0403 56.7982 63.0302 56.7982 63.5891 57.3594C68.0277 61.9296 82.7487 62.0098 87.379 57.3594C87.9378 56.7982 88.9277 56.7982 89.4865 57.3594C90.1412 58.0008 90.1412 58.9951 89.5025 59.5563ZM89.3748 50.865C85.926 50.865 83.1159 48.0427 83.1159 44.579C83.1159 41.0512 85.926 38.2129 89.3748 38.2129C92.8874 38.2129 95.7134 41.0351 95.7134 44.579C95.6975 48.0267 92.8874 50.865 89.3748 50.865Z" fill="#737373"/>
</g>
</g>
<defs>
<clipPath id="clip0_1_224">
<rect width="151" height="72" fill="white"/>
</clipPath>
<clipPath id="clip1_1_224">
<rect width="76" height="72" fill="white" transform="translate(37.5)"/>
</clipPath>
</defs>
</svg>
